# xmcd
#
# Track frame offsets:
#	182
#	22492
#	42550
#	62375
#	82822
#	96430
#	118570
#	140525
#	163387
#
# Disc length: 2447 seconds
#
# Revision: 2
# Processed by: cddbd v1.5.2PL0 Copyright (c) Steve Scherf et al.
# Submitted via: EZCDAudioConverter 1.0.8.1
#
DISCID=7d098d09
DTITLE=Alex D' Castro - Solo
DYEAR=1991
DGENRE=Salsa
TTITLE0=Perdido
TTITLE1=Atado A Ti
TTITLE2=En El Amor
TTITLE3=Año X En El Amor
TTITLE4=Dilema
TTITLE5=Si No Fuera Por Ti
TTITLE6=Solo
TTITLE7=Solamente Contigo
TTITLE8=Otra Oportunidad
EXTD=
EXTT0=
EXTT1=
EXTT2=
EXTT3=
EXTT4=
EXTT5=
EXTT6=
EXTT7=
EXTT8=
PLAYORDER=
